<?xml version="1.0" encoding="UTF-8" standalone="no"?>
<!DOCTYPE svg PUBLIC "-//W3C//DTD SVG 1.0//EN"
 "http://www.w3.org/TR/2001/REC-SVG-20010904/DTD/svg10.dtd" [
 <!ATTLIST svg xmlns:xlink CDATA #FIXED "http://www.w3.org/1999/xlink">
]>
<!-- Generated by Graphviz version 2.20.3 (Wed Oct &#160;8 06:02:12 UTC 2008)
     For user: jwisniewski -->
<!-- Title: pf_tree_after Pages: 1 -->
<svg width="350pt" height="332pt"
 viewBox="0.00 0.00 350.00 332.00" xmlns="http://www.w3.org/2000/svg" xmlns:xlink="http://www.w3.org/1999/xlink">
<g id="graph0" class="graph" transform="scale(1 1) rotate(0) translate(4 328)">
<title>pf_tree_after</title>
<!-- xs -->
<g id="node1" class="node"><title>xs</title>
<text text-anchor="middle" x="126" y="-301.4" style="font-family:Times New Roman;font-size:14.00;">xs</text>
</g>
<!-- d -->
<g id="node3" class="node"><title>d</title>
<ellipse style="fill:none;stroke:white;" cx="126" cy="-234" rx="27" ry="18"/>
<text text-anchor="middle" x="126" y="-229.4" style="font-family:Times New Roman;font-size:14.00;">d</text>
</g>
<!-- xs&#45;&gt;d -->
<g id="edge2" class="edge"><title>xs&#45;&gt;d</title>
<path style="fill:none;stroke:white;" d="M126,-288C126,-280 126,-271 126,-262"/>
<polygon style="fill:white;stroke:white;" points="129.5,-262 126,-252 122.5,-262 129.5,-262"/>
</g>
<!-- b -->
<g id="node5" class="node"><title>b</title>
<ellipse style="fill:none;stroke:white;" cx="93" cy="-162" rx="27" ry="18"/>
<text text-anchor="middle" x="93" y="-157.4" style="font-family:Times New Roman;font-size:14.00;">b</text>
</g>
<!-- d&#45;&gt;b -->
<g id="edge4" class="edge"><title>d&#45;&gt;b</title>
<path style="fill:none;stroke:white;" d="M111,-219C103,-211 99,-200 97,-190"/>
<polygon style="fill:white;stroke:white;" points="100.393,-189.119 95,-180 93.5292,-190.492 100.393,-189.119"/>
</g>
<!-- g -->
<g id="node7" class="node"><title>g</title>
<ellipse style="fill:none;stroke:white;" cx="186" cy="-162" rx="27" ry="18"/>
<text text-anchor="middle" x="186" y="-157.4" style="font-family:Times New Roman;font-size:14.00;">g</text>
</g>
<!-- d&#45;&gt;g -->
<g id="edge6" class="edge"><title>d&#45;&gt;g</title>
<path style="fill:none;stroke:white;" d="M141,-219C151,-209 161,-197 169,-187"/>
<polygon style="fill:white;stroke:white;" points="171.8,-189.1 175,-179 166.2,-184.9 171.8,-189.1"/>
</g>
<!-- a -->
<g id="node9" class="node"><title>a</title>
<ellipse style="fill:none;stroke:white;" cx="27" cy="-90" rx="27" ry="18"/>
<text text-anchor="middle" x="27" y="-85.4" style="font-family:Times New Roman;font-size:14.00;">a</text>
</g>
<!-- b&#45;&gt;a -->
<g id="edge8" class="edge"><title>b&#45;&gt;a</title>
<path style="fill:none;stroke:white;" d="M78,-147C68,-136 57,-124 48,-114"/>
<polygon style="fill:white;stroke:white;" points="50.2191,-111.221 41,-106 44.9511,-115.831 50.2191,-111.221"/>
</g>
<!-- c -->
<g id="node11" class="node"><title>c</title>
<ellipse style="fill:none;stroke:white;" cx="99" cy="-90" rx="27" ry="18"/>
<text text-anchor="middle" x="99" y="-85.4" style="font-family:Times New Roman;font-size:14.00;">c</text>
</g>
<!-- b&#45;&gt;c -->
<g id="edge10" class="edge"><title>b&#45;&gt;c</title>
<path style="fill:none;stroke:white;" d="M108,-147C116,-139 116,-127 113,-117"/>
<polygon style="fill:white;stroke:white;" points="115.964,-114.985 109,-107 109.464,-117.585 115.964,-114.985"/>
</g>
<!-- f -->
<g id="node13" class="node"><title>f</title>
<ellipse style="fill:none;stroke:white;" cx="171" cy="-90" rx="27" ry="18"/>
<text text-anchor="middle" x="171" y="-85.4" style="font-family:Times New Roman;font-size:14.00;">f</text>
</g>
<!-- g&#45;&gt;f -->
<g id="edge12" class="edge"><title>g&#45;&gt;f</title>
<path style="fill:none;stroke:white;" d="M171,-147C164,-140 163,-128 164,-118"/>
<polygon style="fill:white;stroke:white;" points="167.488,-118.299 165,-108 160.522,-117.602 167.488,-118.299"/>
</g>
<!-- h -->
<g id="node15" class="node"><title>h</title>
<ellipse style="fill:none;stroke:white;" cx="315" cy="-90" rx="27" ry="18"/>
<text text-anchor="middle" x="315" y="-85.4" style="font-family:Times New Roman;font-size:14.00;">h</text>
</g>
<!-- g&#45;&gt;h -->
<g id="edge14" class="edge"><title>g&#45;&gt;h</title>
<path style="fill:none;stroke:white;" d="M201,-147C202,-146 250,-122 284,-105"/>
<polygon style="fill:white;stroke:white;" points="285.283,-108.26 293,-101 282.44,-101.863 285.283,-108.26"/>
</g>
</g>
</svg>
